<svg xmlns="http://www.w3.org/2000/svg" width="45" height="30" viewBox="0 0 45 30"><g><g><path fill="#c6a772" d="M22.507 30.006c-7.577 0-14.882-1.493-15.19-1.556a1.682 1.682 0 0 1-1.234-1.037L.119 11.843a1.622 1.622 0 0 1 .348-1.705 1.72 1.72 0 0 1 1.72-.456l10.968 3.182L21.08.755c.311-.473.85-.762 1.427-.762.578 0 1.116.288 1.427.762l7.926 12.11 10.966-3.183a1.725 1.725 0 0 1 1.72.456c.439.458.574 1.12.35 1.705l-5.964 15.57c-.204.53-.672.923-1.242 1.04-.313.061-7.744 1.553-15.183 1.553zM8.923 25.39c2.16.39 7.87 1.31 13.584 1.31 5.618 0 11.4-.923 13.586-1.313l4.44-11.592-8.93 2.593a1.716 1.716 0 0 1-1.91-.695L22.506 4.715l-7.185 10.978a1.718 1.718 0 0 1-1.91.695l-8.93-2.593z"/></g></g></svg>