<svg xmlns="http://www.w3.org/2000/svg" width="192" height="192" viewBox="0 0 192 192"><g><g><path fill="#fff" d="M191.4 96.003c0 52.685-42.71 95.396-95.396 95.396-52.685 0-95.396-42.71-95.396-95.396S43.318.607 96.004.607c52.663.057 95.34 42.735 95.396 95.396zm-58.036-6.676l-54.612-29.69a6.412 6.412 0 0 0-3.055-.782c-3.77.002-6.825 3.328-6.823 7.427v59.376a7.957 7.957 0 0 0 .72 3.359c1.685 3.665 5.785 5.151 9.158 3.32l54.612-29.69v-.034c1.328-.721 2.403-1.89 3.065-3.333 1.682-3.67.31-8.125-3.065-9.953z"/></g></g></svg>