<?xml version="1.0" encoding="UTF-8" standalone="no"?>
<svg
   xmlns:dc="http://purl.org/dc/elements/1.1/"
   xmlns:cc="http://creativecommons.org/ns#"
   xmlns:rdf="http://www.w3.org/1999/02/22-rdf-syntax-ns#"
   xmlns:svg="http://www.w3.org/2000/svg"
   xmlns="http://www.w3.org/2000/svg"
   id="svg8"
   version="1.1"
   viewBox="0 0 16 16"
   height="16"
   width="16">
  <metadata
     id="metadata14">
    <rdf:RDF>
      <cc:Work
         rdf:about="">
        <dc:format>image/svg+xml</dc:format>
        <dc:type
           rdf:resource="http://purl.org/dc/dcmitype/StillImage" />
        <dc:title></dc:title>
      </cc:Work>
    </rdf:RDF>
  </metadata>
  <defs
     id="defs12" />
  <g
     id="g6">
    <g
       id="g4">
      <path
         id="path827"
         d="M 8 0.001953125 C 3.59 0.001953125 0.001953125 3.5890469 0.001953125 7.9980469 C 0.001953125 12.410047 3.589 15.998047 8 15.998047 C 12.41 15.998047 15.998047 12.41 15.998047 8 L 15.998047 7.9980469 C 15.998047 3.5880469 12.41 0.001953125 8 0.001953125 z M 7.9628906 3.3476562 C 8.5658906 3.3476563 9.0667031 3.4316564 9.4707031 3.5976562 A 2.956 2.956 0 0 1 10.443359 4.2128906 A 2.247 2.247 0 0 1 10.972656 5.0078125 C 11.077656 5.2928125 11.130859 5.5596406 11.130859 5.8066406 L 11.132812 5.8066406 C 11.130813 6.2116406 11.077656 6.5465469 10.972656 6.8105469 A 2.477 2.477 0 0 1 10.054688 7.9609375 C 9.864687 8.0939375 9.684625 8.2234687 9.515625 8.3554688 C 9.346625 8.4874687 9.1925 8.6385938 9.0625 8.8085938 C 8.9305 8.9785936 8.8484531 9.1903594 8.8144531 9.4433594 L 8.8144531 9.9296875 L 7.0957031 9.9296875 L 7.0957031 9.3535156 C 7.1217031 8.9895156 7.1906406 8.6844531 7.3066406 8.4394531 A 2.597 2.597 0 0 1 7.7070312 7.8105469 C 7.8610312 7.6365469 8.0214064 7.4844688 8.1914062 7.3554688 A 8.62 8.62 0 0 0 8.6621094 6.9765625 A 1.75 1.75 0 0 0 9.0117188 6.5566406 C 9.1007187 6.4036406 9.1398125 6.2104219 9.1328125 5.9824219 C 9.1328125 5.5914219 9.0367031 5.3031875 8.8457031 5.1171875 C 8.6547031 4.9301875 8.3898281 4.8378906 8.0488281 4.8378906 A 1.24 1.24 0 0 0 7.4589844 4.9707031 C 7.2929844 5.0587031 7.1567812 5.1771719 7.0507812 5.3261719 C 6.9447812 5.4741719 6.8664531 5.6476562 6.8144531 5.8476562 C 6.7644531 6.0466562 6.7382812 6.2601875 6.7382812 6.4921875 L 4.8671875 6.4921875 A 3.657 3.657 0 0 1 5.1035156 5.2304688 C 5.2525156 4.8494687 5.4605156 4.5182813 5.7285156 4.2382812 C 5.9955156 3.9552813 6.3173125 3.7400314 6.6953125 3.5820312 C 7.0733125 3.4250313 7.4958906 3.3476562 7.9628906 3.3476562 z M 6.9179688 10.691406 L 8.9160156 10.691406 L 8.9179688 12.652344 L 6.9179688 12.652344 L 6.9179688 10.691406 z "
         style="fill:#ffffff;fill-opacity:1" />
    </g>
  </g>
</svg>
