<svg xmlns="http://www.w3.org/2000/svg" width="52" height="84" viewBox="0 0 52 84"><g><g><path fill="#fff" d="M4.514 15.457V7.26c0-1.543 1.271-2.799 2.83-2.799H44.65c1.603 0 2.872 1.256 2.872 2.799v8.196zm0 1.99h43.008v49.104H4.514zm33.938-4.26c.698.364 1.848.53 2.75.53 2.052 0 3.2-.979 3.242-2.44.041-1.254-.822-1.867-2.257-2.15-1.437-.283-2.092-.366-2.092-1.054 0-.407.492-.733 1.311-.733.537 0 1.026.081 1.52.246.369.163.738.365.903.648V6.651c-.492-.242-1.273-.485-2.423-.485-1.68 0-2.83.932-2.871 2.151 0 1.215.82 1.906 2.34 2.11 1.19.163 1.968.283 1.968 1.054 0 .649-.614 1.096-1.641 1.096a4.032 4.032 0 0 1-1.97-.49c-.245-.118-.616-.403-.78-.645zM12.968 8.52c0 .73-.615 1.013-1.561 1.013H9.686v-2.07h1.72c.947 0 1.562.287 1.562 1.057zm1.068 3.245c-.37-.689-.656-1.216-1.192-1.459 1.15-.243 1.725-.895 1.725-1.868 0-.935-.412-1.662-1.189-1.945-.494-.205-1.111-.205-2.054-.205H7.551c.369.244.573.974.573 1.624v4.1c0 .606-.204 1.376-.573 1.58h2.708c-.37-.204-.574-.974-.574-1.58v-1.3h1.147c.575 0 .904.202 1.15.648.411.651.698 1.54 1.192 2.232h2.174c-.657-.447-.987-1.138-1.312-1.827-.326-.69 0 0 0 0zm5.745 2.032c1.025 0 1.887-.287 2.544-.854.779-.648 1.312-1.623 1.312-3.002 0-1.339-.533-2.354-1.312-3.003-.657-.528-1.52-.813-2.544-.813-1.027 0-1.889.285-2.546.813-.78.649-1.312 1.664-1.312 3.003 0 1.379.532 2.354 1.312 3.002.657.567 1.56.854 2.546.854.986 0 0 0 0 0zM17.564 9.94c0-.853.205-1.503.655-1.948.37-.367.904-.609 1.562-.609.656 0 1.19.242 1.558.609.454.445.698 1.095.698 1.948 0 .895-.244 1.541-.698 1.948-.368.366-.902.608-1.558.608-.658 0-1.191-.242-1.562-.608l-.1-.099c-.38-.41-.555-1.024-.555-1.849zm12.887 1.786c-.41.528-1.273.69-2.217.69h-1.437V7.91c0-.611.204-1.38.535-1.623h-2.67c.371.243.575 1.012.575 1.623v4.1c0 .647-.204 1.335-.575 1.58h5.543zm6.69 0c-.412.528-1.274.727-2.218.69h-1.476V7.91c0-.611.203-1.38.573-1.623h-2.667c.37.243.574 1.012.574 1.623v4.1c0 .647-.205 1.376-.574 1.623h5.499zM51.996 7.26v69.473c0 4.016-3.281 7.265-7.347 7.265H7.345C3.28 83.999 0 80.75 0 76.734V7.261C0 3.244 3.28-.004 7.345-.004h37.304c4.066 0 7.347 3.248 7.347 7.265zM2.502 76.734c0 2.638 2.176 4.788 4.843 4.788h37.304c2.708 0 4.885-2.15 4.885-4.788V7.261c0-2.637-2.177-4.787-4.885-4.787H7.345c-2.667 0-4.843 2.15-4.843 4.787zm45.019-8.197v8.197c0 1.54-1.269 2.801-2.872 2.801H7.345c-1.56 0-2.831-1.26-2.831-2.8v-8.198zm-24.58-9.82V47.802c1.065-.042 2.092-.082 3.12-.166-.372-.848-.74-1.701-1.193-2.51-.614.08-1.271.08-1.927.119v-2.272a39.071 39.071 0 0 1-4.595.73v15.016c0 3.325-1.562 4.22-2.506 4.827h9.603zm22.323 4.786c-.779-.728-1.765-1.865-2.257-4.099-.9-4.099-2.79-9.979-6.77-14.363 3.9-2.11 6.279-5.437 6.279-9.536.04-2.922-1.477-6.002-4.187-7.833-1.148-.73-2.502-1.256-4.104-1.58.575 1.214.944 2.515 1.027 3.814 1.683 1.299 2.586 3.286 2.586 5.68 0 3.043-1.56 6.615-7.018 8.44.45.853.902 1.748 1.274 2.6.286-.08.573-.163.861-.243 2.543 2.919 4.595 7.502 5.21 11.765.45 3.083-.657 4.627-1.394 5.355zM14.611 23.29h6.524c2.38.04 4.145.528 5.539 1.502 1.848 1.3 2.833 3.37 2.833 5.842 0 4.18-2.917 9.497-14.896 9.7zm-4.599 30.476c0 3.366-1.56 4.22-2.503 4.827h9.604c-.902-.606-2.502-1.461-2.502-4.827V42.85c3.362 0 6.524-.408 9.19-1.097 2.421 2.881 4.227 7.345 4.802 11.444.411 3.085-.656 4.67-1.395 5.396h8.496c-.822-.726-1.805-1.867-2.257-4.097-.904-4.099-2.71-9.862-6.321-13.96.163-.08.287-.122.452-.203 4.104-2.069 6.606-5.518 6.606-9.74.04-2.962-1.475-6.005-4.185-7.829-2.135-1.421-5.006-1.987-8.66-1.987H7.509c.944.606 2.503 1.497 2.503 4.826zM22.941 37.9v-9.617h5.17c-.37-1.056-1.025-1.907-1.928-2.56H15.84c.944.608 2.506 1.463 2.506 4.831v8.484zM34.596 71.58c1.025 0 1.683.245 2.133.73v-1.5c-.37-.202-1.025-.407-2.092-.407-1.109 0-2.012.327-2.668.892-.737.614-1.233 1.544-1.233 2.76 0 2.275 1.6 3.614 3.9 3.614 1.068 0 1.723-.205 2.093-.367l.248-1.581c-.412.484-1.356.77-2.381.77-1.437 0-2.26-1.058-2.26-2.435zm-21.874 1.097c0 .69-.576.973-1.478.973H9.6v-1.946h1.643c.902 0 1.478.243 1.478.973zm1.026 3.083c-.328-.65-.616-1.177-1.11-1.38 1.067-.204 1.602-.853 1.644-1.744 0-.932-.413-1.624-1.15-1.906-.452-.162-1.067-.162-1.97-.162H7.591c.329.199.533.892.533 1.54v3.897c0 .566-.204 1.297-.533 1.54h2.545c-.33-.243-.535-.974-.535-1.54v-1.256h1.07c.573 0 .903.241 1.148.645.369.61.655 1.46 1.107 2.11l2.093.04c-.658-.486-.944-1.092-1.271-1.784-.327-.693 0 0 0 0zm5.458 1.949c.985 0 1.806-.284 2.421-.813.739-.607 1.272-1.54 1.272-2.84 0-1.298-.533-2.23-1.272-2.88-.615-.486-1.436-.773-2.421-.773-.946 0-1.766.287-2.383.773-.737.65-1.27 1.582-1.27 2.88 0 1.3.533 2.233 1.27 2.84.617.529 1.437.813 2.383.813.945 0 0 0 0 0zm-1.58-1.925c-.101-.1-.058-.058 0 0-.343-.375-.513-.95-.513-1.728 0-.852.204-1.459.616-1.865.367-.366.86-.57 1.517-.57.616 0 1.108.204 1.48.57.409.406.613 1.013.613 1.865 0 .853-.204 1.46-.614 1.83a2.065 2.065 0 0 1-1.479.606c-.656 0-1.15-.244-1.517-.607a1.456 1.456 0 0 1-.103-.101zm10.773-5.216c.165.122.245.242.204.405 0 .16-.081.406-.244.649l-1.397 1.989-1.396-2.031c-.165-.242-.329-.484-.286-.688.042-.125.08-.245.245-.324h-2.832c.492.199.738.565 1.108 1.094l2.298 3.205v1.138c0 .566-.202 1.297-.533 1.5h2.545c-.326-.203-.533-.934-.533-1.5v-1.138l2.092-2.92c.33-.408.78-1.137 1.273-1.379zm13.623 5.842h-1.804v-1.906h2.708l.165-1.058h-2.873v-1.742h1.6c.902 0 1.642.038 2.011.404v-1.54h-5.621c.327.242.53.97.53 1.54v3.897c0 .608-.203 1.297-.53 1.54h5.66l.248-1.703z"/></g></g></svg>